<svg width="297.7476265822785" height="261.35625" viewBox="0 0 90 79" class="looka-1j8o68f"><defs id="SvgjsDefs6923"></defs><g id="SvgjsG6924" featurekey="rootContainer" transform="matrix(1,0,0,1,0,0)" fill="#ffffff"><rect xmlns="http://www.w3.org/2000/svg" width="90" height="79" rx="10" ry="10"></rect></g><g id="SvgjsG6925" featurekey="nameFeature-0" transform="matrix(2.777771302226528,0,0,2.777771302226528,20.000117884467077,3.3889315333373027)" fill="#e42226"><path d="M12.6 5.98 l5.4 0 c-0.3 0.5 -2.32 4.02 -4.26 7.4 c-1.14 1.98 -2.4 4.2 -3.82 6.62 l-1.8 0 c0.16 -0.26 1.94 -3.4 3.7 -6.44 c1.02 -1.78 2.18 -3.8 3.48 -6.02 l-1.8 0 c-2.52 4.32 -3.98 6.9 -6.28 10.9 c-0.14 -0.24 -7.24 -12.44 -7.22 -12.46 l5.4 0 l2.72 4.68 l-0.9 1.56 l-2.72 -4.68 l-1.8 0 c0.4 0.64 4.14 7.16 4.52 7.78 l3.92 -6.8 z"></path></g></svg>